<?xml version="1.0" encoding="utf-8"?>
<!-- Generator: Adobe Illustrator 22.1.0, SVG Export Plug-In . SVG Version: 6.00 Build 0)  -->
<svg version="1.1" id="Laag_1" xmlns="http://www.w3.org/2000/svg" xmlns:xlink="http://www.w3.org/1999/xlink" x="0px" y="0px"
	 viewBox="0 0 20 20" style="enable-background:new 0 0 20 20;" xml:space="preserve">
<g>
	<path d="M15.3,5.5c0,0.6-0.4,1-0.8,1.2c-0.1,0.1-0.4,0.3-0.3,0.4c0,0.3-0.2,0.5-0.5,0.5h0c-0.3,0-0.5-0.2-0.5-0.5
		c0-0.5,0.4-0.9,0.7-1.1c0.2-0.2,0.4-0.4,0.4-0.5c0-0.3-0.2-0.5-0.5-0.5c-0.3,0-0.5,0.2-0.5,0.5c0,0.3-0.2,0.5-0.5,0.5
		c-0.3,0-0.5-0.2-0.5-0.5C12.3,4.7,13,4,13.8,4S15.3,4.7,15.3,5.5L15.3,5.5z M13.7,8.1c-0.3,0-0.5,0.2-0.5,0.5v0
		c0,0.3,0.2,0.5,0.5,0.5c0.3,0,0.5-0.2,0.5-0.5C14.2,8.3,14,8.1,13.7,8.1L13.7,8.1z M3.7,11.5c-0.3,0-0.5,0.2-0.5,0.5
		c0,0.3,0.2,0.5,0.5,0.5h0c0.3,0,0.5-0.2,0.5-0.5C4.2,11.8,4,11.5,3.7,11.5L3.7,11.5z M5.4,11.5c-0.3,0-0.5,0.2-0.5,0.5
		c0,0.3,0.2,0.5,0.5,0.5h0C5.7,12.5,6,12.3,6,12C6,11.8,5.7,11.5,5.4,11.5L5.4,11.5z M20,3.6v5.6c0,1.3-1.1,2.4-2.4,2.4h-6.5
		c-0.1,0-0.2,0-0.3,0c-0.1,0-0.2,0-0.2,0c0,0-0.1,0.1-0.2,0.2c0,0-0.1,0.1-0.1,0.1l-1.8,1.7c-0.1,0.1-0.4,0.2-0.5,0.1
		c-0.2-0.1-0.3-0.3-0.3-0.5V7.9H2.4C1.6,7.9,1,8.6,1,9.4V15c0,0.8,0.6,1.4,1.4,1.4h7.2c0.1,0,0.2,0.1,0.3,0.1l1.5,1.4v-4.7
		c0-0.3,0.2-0.5,0.5-0.5c0.3,0,0.5,0.2,0.5,0.5V19c0,0.2-0.1,0.4-0.3,0.5c-0.1,0-0.1,0-0.2,0c-0.1,0-0.2-0.1-0.3-0.1l-2.2-2h-7
		C1.1,17.3,0,16.3,0,15V9.4C0,8,1.1,6.9,2.4,6.9h5.2V3.6c0-1.3,1.1-2.4,2.4-2.4h7.6C19,1.2,20,2.3,20,3.6L20,3.6z M19,3.6
		c0-0.8-0.6-1.4-1.4-1.4H10c-0.8,0-1.4,0.6-1.4,1.4v8.5l1-0.9c0,0,0.1-0.1,0.1-0.1c0.5-0.4,0.6-0.5,1.2-0.5c0.1,0,0.2,0,0.3,0h6.5
		c0.8,0,1.4-0.6,1.4-1.4V3.6z M19,3.6"/>
</g>
</svg>
